<svg width="60" height="59" viewBox="0 0 60 59" fill="none" xmlns="http://www.w3.org/2000/svg">
<path d="M8.60139 6.362C8.55646 6.59644 8.50876 6.86333 8.49518 6.9553C8.48179 7.04711 8.44906 7.29101 8.42264 7.49735C8.39624 7.70356 8.36281 7.9988 8.34863 8.15344C8.33431 8.30792 8.31469 8.54322 8.30484 8.67614C8.29512 8.80907 8.2786 9.09191 8.26805 9.30467C8.25752 9.51726 8.24601 9.83477 8.24254 10.0101C8.23898 10.1853 8.23615 10.4718 8.23617 10.6469C8.2362 10.8219 8.23972 11.1347 8.24405 11.3419C8.24853 11.5492 8.25972 11.8852 8.26892 12.0889C8.27814 12.2924 8.30239 12.6934 8.32269 12.9796C8.34314 13.2659 8.37952 13.7056 8.40371 13.9568C8.42792 14.2079 8.46352 14.5519 8.48298 14.7215C8.50228 14.891 8.54659 15.2422 8.58118 15.5021C8.61593 15.762 8.67843 16.1806 8.72001 16.4324C8.76176 16.6841 8.8261 17.0533 8.8633 17.2529C8.90054 17.4524 8.96973 17.8024 9.01708 18.0307C9.06445 18.2589 9.15367 18.6603 9.21548 18.9225C9.27712 19.1847 9.37429 19.58 9.43142 19.8011C9.48854 20.0222 9.629 20.5206 9.74359 20.9088C9.85819 21.297 10.0105 21.7901 10.082 22.0048C10.1535 22.2193 10.2585 22.5275 10.3153 22.6893C10.3721 22.8512 10.4786 23.1454 10.5518 23.343C10.6251 23.5407 10.7337 23.8247 10.793 23.9743C10.8524 24.1239 10.9549 24.377 11.0205 24.5367C11.0864 24.6963 11.2332 25.0382 11.3469 25.2962C11.4606 25.5542 11.6249 25.9173 11.7117 26.1031C11.7988 26.2888 11.9396 26.5816 12.0246 26.7538C12.1097 26.9258 12.2653 27.2323 12.3706 27.435C12.4759 27.6375 12.6374 27.9414 12.7296 28.1103C12.8217 28.2791 12.9982 28.5929 13.1218 28.8077C13.2452 29.0224 13.4413 29.3545 13.5575 29.5455C13.6737 29.7366 13.8394 30.0044 13.9257 30.1409C14.012 30.2772 14.2217 30.5988 14.392 30.8555C14.5621 31.1122 14.8567 31.5322 15.0464 31.7887C15.2362 32.0454 15.4665 32.3522 15.5584 32.4706C15.6503 32.589 15.8187 32.8019 15.9326 32.9438C16.0465 33.0856 16.2424 33.3248 16.368 33.4754C16.4936 33.6258 16.747 33.9197 16.9311 34.1286C17.1153 34.3373 17.3797 34.6302 17.5188 34.7795L17.7715 35.0509L17.6858 35.4781C17.6387 35.7129 17.5622 36.0931 17.516 36.3229C17.4675 36.5643 17.4067 36.9287 17.3724 37.1865C17.3394 37.4317 17.3035 37.7265 17.2923 37.8415C17.2812 37.9564 17.2618 38.1917 17.2492 38.3641C17.2364 38.5367 17.2215 38.8093 17.2157 38.9703C17.2101 39.1312 17.2056 39.428 17.2058 39.6301C17.2058 39.832 17.2125 40.1489 17.2203 40.3344C17.2284 40.5198 17.245 40.7982 17.2572 40.953C17.2695 41.1077 17.2895 41.3278 17.3017 41.4422C17.3141 41.5565 17.3433 41.7931 17.3671 41.9678C17.3907 42.1426 17.4317 42.4104 17.4584 42.5633C17.4851 42.716 17.5327 42.9668 17.5644 43.1205C17.5962 43.2742 17.6574 43.5458 17.7007 43.724C17.7438 43.9021 17.8172 44.1831 17.8637 44.3484C17.9101 44.5136 17.995 44.793 18.0525 44.9692C18.1101 45.1453 18.194 45.3916 18.239 45.5162C18.2842 45.6409 18.3644 45.8533 18.4173 45.9883C18.4701 46.1233 18.6319 46.5079 18.7766 46.8432C18.9215 47.1783 19.1983 47.8184 19.3919 48.2654C19.5855 48.7124 20.0209 49.7182 20.3596 50.5005C20.6982 51.2827 21 51.9712 21.0302 52.0304C21.0605 52.0896 21.1227 52.199 21.1685 52.2734C21.2143 52.3479 21.3095 52.4773 21.3802 52.5611C21.4508 52.6448 21.5591 52.761 21.6207 52.8192C21.6823 52.8776 21.7945 52.9711 21.8701 53.0272C21.9455 53.0833 22.0654 53.1643 22.1366 53.2072C22.2077 53.2501 22.3463 53.3204 22.4446 53.3637C22.5427 53.4068 22.7022 53.4651 22.7991 53.4934C22.9086 53.5255 23.0664 53.5574 23.2169 53.5782C23.3498 53.5964 23.5175 53.611 23.5896 53.6103C23.6616 53.6098 23.7838 53.6045 23.8613 53.5986C23.9386 53.5929 24.0671 53.5753 24.1465 53.5598C24.2259 53.5442 24.3488 53.5144 24.4197 53.4932C24.4906 53.4723 24.5958 53.4373 24.6536 53.4155C24.7114 53.3936 24.8352 53.3374 24.9287 53.2904C25.0223 53.2434 25.1745 53.1519 25.2673 53.0872C25.36 53.0222 25.5026 52.9072 25.5839 52.8314C25.6653 52.7555 25.7788 52.6363 25.8362 52.5665C25.8937 52.4965 25.9736 52.39 26.0138 52.3298C26.054 52.2695 26.1178 52.1636 26.1558 52.0942C26.1937 52.0249 26.527 51.2537 26.8962 50.3806C27.2654 49.5075 27.9531 47.8805 28.4245 46.7655C28.8959 45.6503 29.2898 44.7223 29.3001 44.703L29.3187 44.6681L29.3798 44.782C29.4134 44.8447 29.516 45.0068 29.6078 45.1418C29.6997 45.2769 29.8356 45.4589 29.9098 45.5462C29.984 45.6334 30.12 45.7816 30.2119 45.8755C30.3039 45.9692 30.4697 46.121 30.5802 46.2126C30.6907 46.3043 30.8622 46.4345 30.9616 46.5022C31.0608 46.5698 31.2264 46.6737 31.3294 46.7332C31.4324 46.7924 31.6339 46.8936 31.7771 46.9577C31.9204 47.0218 32.1335 47.106 32.2507 47.1451C32.368 47.1841 32.5839 47.2452 32.7304 47.2808C32.877 47.3164 33.0868 47.3567 33.1968 47.3704C33.3067 47.3841 33.4909 47.4012 33.6062 47.4086C33.7214 47.4159 33.9235 47.4194 34.0551 47.4162C34.1868 47.4129 34.3843 47.3996 34.4941 47.3865C34.6039 47.3732 34.7658 47.3492 34.8541 47.333C34.9423 47.3167 35.0915 47.2842 35.1855 47.261C35.2796 47.2376 35.366 47.2163 35.3778 47.2135C35.3943 47.2095 35.3879 47.2729 35.3483 47.4991L35.2974 47.7897L35.323 48.1394C35.3446 48.437 35.3565 48.5138 35.4023 48.6536C35.4319 48.7442 35.504 48.9429 35.5622 49.0955C35.6203 49.2481 35.7242 49.4998 35.7929 49.655C35.8616 49.8102 35.9807 50.0615 36.0577 50.2137C36.1345 50.3658 36.254 50.5892 36.3228 50.7102C36.3919 50.8312 36.5128 51.0333 36.5916 51.1595C36.6703 51.2855 36.8312 51.5236 36.949 51.6885C37.0667 51.8533 37.2141 52.0526 37.2767 52.1314C37.3392 52.2102 37.4622 52.358 37.5501 52.46C37.6378 52.562 37.7822 52.7229 37.871 52.8179C37.9598 52.9127 38.1233 53.0801 38.2342 53.1897C38.3451 53.2992 38.5293 53.4727 38.6435 53.5752C38.7575 53.6776 38.9522 53.8459 39.076 53.949C39.1999 54.0521 39.4705 54.2606 39.6775 54.4123C39.8845 54.564 40.1792 54.7692 40.3326 54.8682C40.4859 54.9674 40.7112 55.1078 40.8333 55.1803C40.9553 55.2527 41.1828 55.3809 41.3386 55.4654C41.4946 55.5497 41.7553 55.6831 41.9181 55.7618C42.0807 55.8402 42.3256 55.9531 42.4623 56.0123C42.5988 56.0714 42.8137 56.1604 42.9398 56.2099C43.0659 56.2596 43.2729 56.3367 43.3999 56.3816C43.5268 56.4265 43.7386 56.4972 43.8706 56.5387C44.0026 56.5801 44.2217 56.6447 44.3572 56.6821C44.493 56.7194 44.7908 56.7915 45.0192 56.8423C45.3366 56.9128 45.53 56.9469 45.8405 56.9869C46.0641 57.0157 46.3764 57.0473 46.5347 57.0569C46.6929 57.0667 46.9223 57.0739 47.0442 57.073C47.1663 57.0722 47.359 57.0655 47.4727 57.0583C47.5863 57.0509 47.779 57.0302 47.9008 57.0124C48.0226 56.9944 48.1997 56.9608 48.2945 56.9377C48.3891 56.9146 48.5701 56.8604 48.6965 56.8175C48.8229 56.7746 48.986 56.7134 49.0591 56.6818C49.132 56.6501 49.2264 56.6047 49.2689 56.5811C49.3113 56.5573 49.3483 56.5242 49.3513 56.5076C49.3542 56.4908 49.4341 56.4122 49.529 56.3328C49.6613 56.222 49.7357 56.1432 49.8488 55.9941C49.9298 55.8871 50.0434 55.7273 50.1013 55.6388C50.1591 55.5503 50.2523 55.3974 50.3083 55.2991C50.3643 55.2008 50.4571 55.0226 50.5148 54.903C50.5725 54.7834 50.6597 54.5826 50.7086 54.4565C50.7575 54.3305 50.8242 54.1403 50.8568 54.0339C50.8895 53.9274 50.9439 53.7235 50.9778 53.5805C51.0174 53.4138 51.066 53.1386 51.1134 52.8129C51.154 52.5336 51.2003 52.1695 51.2158 52.0036C51.2314 51.8378 51.2512 51.5591 51.2596 51.3843C51.2679 51.2095 51.2753 50.978 51.276 50.8696C51.2766 50.7613 51.274 50.5435 51.2703 50.3858C51.2665 50.228 51.255 49.98 51.2447 49.8346C51.2346 49.6892 51.2153 49.4655 51.2018 49.3374C51.1884 49.2094 51.1526 48.9387 51.1224 48.7359C51.0919 48.533 51.0334 48.2069 50.9921 48.0112C50.9508 47.8154 50.8919 47.5553 50.8609 47.4332C50.8301 47.311 50.7551 47.0481 50.6944 46.8489C50.6336 46.6497 50.5366 46.3572 50.479 46.199C50.4213 46.0406 50.337 45.8201 50.2914 45.7089C50.2458 45.5976 50.1531 45.3836 50.0853 45.2334C50.0176 45.0831 49.8981 44.8343 49.8196 44.6806C49.7411 44.5268 49.6265 44.3114 49.5649 44.2018C49.5032 44.0922 49.3878 43.8956 49.3083 43.7649C49.2291 43.6342 49.0788 43.4057 48.9746 43.257C48.8705 43.1085 48.6976 42.8784 48.5908 42.7459C48.4837 42.6134 48.3259 42.425 48.2397 42.3271C48.1535 42.2293 48.0119 42.0734 47.9248 41.9809C47.8377 41.8883 47.6599 41.7103 47.5294 41.5853C47.3991 41.4603 47.1803 41.2616 47.0433 41.1439C46.9066 41.0261 46.7163 40.8722 46.6209 40.8016C46.5255 40.7311 46.3865 40.6432 46.3122 40.6059L46.177 40.5383L45.7462 40.4558C45.5092 40.4104 45.3157 40.3715 45.3161 40.3691C45.3165 40.3667 45.3697 40.2904 45.4343 40.1996C45.4988 40.1086 45.6014 39.9477 45.6622 39.8419C45.7231 39.7361 45.812 39.5682 45.8599 39.4688C45.9078 39.3694 45.9805 39.202 46.0212 39.0971C46.0622 38.992 46.1233 38.8123 46.1574 38.6977C46.1915 38.5831 46.2533 38.3223 46.2947 38.1181C46.3542 37.8265 46.3728 37.7004 46.3822 37.5302C46.3887 37.4109 46.3919 37.2205 46.3892 37.1071C46.3865 36.9935 46.3761 36.8185 46.3662 36.7181C46.3563 36.6176 46.3324 36.4438 46.3129 36.332C46.2933 36.2202 46.2552 36.0408 46.2279 35.9335C46.2005 35.8262 46.149 35.6524 46.1134 35.5474C46.0776 35.4424 46.0051 35.2569 45.952 35.1354C45.8987 35.0137 45.8067 34.8258 45.7472 34.7176C45.6876 34.6095 45.5705 34.4199 45.4867 34.2963C45.4029 34.1728 45.2766 34.0028 45.206 33.9186C45.1352 33.8343 45.0832 33.7616 45.09 33.7571C45.0969 33.7525 46.8744 33.6599 49.0403 33.5512C51.4963 33.4277 53.0428 33.343 53.1494 33.3257C53.2438 33.3105 53.4002 33.2756 53.4969 33.2481C53.5936 33.2206 53.7507 33.1638 53.846 33.1218C53.9413 33.0799 54.0884 33.0053 54.1727 32.9562C54.257 32.9069 54.3978 32.8093 54.4854 32.7396C54.5731 32.6697 54.7024 32.553 54.7726 32.4801C54.843 32.4072 54.9534 32.2762 55.018 32.1888C55.0826 32.1015 55.1731 31.9626 55.219 31.8801C55.2649 31.7976 55.3295 31.6641 55.3625 31.5834C55.4093 31.4689 55.4323 31.3816 55.4663 31.187C55.4905 31.0498 55.5182 30.8507 55.5281 30.7447C55.5378 30.6387 55.5442 30.4745 55.5419 30.3799C55.5396 30.2852 55.5263 30.1299 55.5122 30.0348C55.4979 29.9397 55.4696 29.7981 55.449 29.7204C55.4284 29.6427 55.3915 29.5247 55.3667 29.4583C55.3422 29.3918 55.2905 29.2717 55.2519 29.1913C55.2134 29.1108 55.1388 28.977 55.0864 28.8938C55.0339 28.8106 54.9331 28.6745 54.8621 28.5912C54.7771 28.4912 53.9535 27.7158 52.437 26.3085C51.174 25.1363 50.0346 24.0848 49.9054 23.9717C49.7759 23.8587 49.5549 23.6726 49.4144 23.5584C49.2737 23.4442 49.0088 23.2397 48.8257 23.1039C48.6427 22.9683 48.3882 22.7859 48.2601 22.6985C48.1321 22.6112 47.9182 22.4703 47.7846 22.3854C47.6511 22.3006 47.4184 22.1586 47.2679 22.0699C47.1172 21.9811 46.8494 21.8309 46.673 21.7362C46.4963 21.6414 46.1995 21.4898 46.0133 21.3992C45.8269 21.3086 45.5275 21.1714 45.3479 21.0942C45.1682 21.0171 44.8836 20.9005 44.7154 20.8351C44.5471 20.7695 44.2533 20.6626 44.0627 20.5973C43.8718 20.532 43.5656 20.4337 43.382 20.3792C43.1983 20.3244 42.9074 20.2436 42.7354 20.1994C42.5634 20.1554 42.2087 20.0732 41.9471 20.0172C41.598 19.9422 41.3304 19.895 40.9406 19.8395C40.6487 19.798 40.2943 19.7435 40.1532 19.7186L39.8967 19.6734L39.7038 19.3011C39.5977 19.0965 39.4306 18.7824 39.3326 18.6032C39.2344 18.4242 39.0747 18.1388 38.9777 17.9691C38.8804 17.7994 38.7013 17.4961 38.5794 17.2951C38.4575 17.094 38.2896 16.8221 38.2064 16.6907C38.1232 16.5594 37.9003 16.22 37.7112 15.9366C37.522 15.6532 37.225 15.2263 37.0513 14.9879C36.8774 14.7495 36.6546 14.4484 36.556 14.3189C36.4574 14.1892 36.2717 13.9503 36.1432 13.7878C36.0148 13.6251 35.7882 13.3464 35.6398 13.1683C35.4915 12.9901 35.2198 12.674 35.0364 12.4661C34.8527 12.2579 34.5974 11.9738 34.4686 11.8346C34.3398 11.6955 34.1104 11.4532 33.9588 11.2962C33.8073 11.1391 33.5798 10.9079 33.4537 10.7825C33.3274 10.6569 33.0731 10.4102 32.8884 10.234C32.7038 10.0579 32.4544 9.82424 32.3344 9.71479C32.2143 9.60548 31.9711 9.38877 31.7936 9.23313C31.6162 9.07734 31.3223 8.82573 31.1404 8.67371C30.9587 8.52171 30.7197 8.32453 30.6095 8.23558C30.4994 8.14648 30.2475 7.94802 30.0499 7.7942C29.8523 7.64039 29.5475 7.40859 29.3726 7.279C29.1977 7.14942 28.8942 6.93059 28.6984 6.79259C28.5024 6.65473 28.2371 6.47021 28.1087 6.38262C27.9803 6.29519 27.7145 6.11857 27.5181 5.9901C27.3217 5.8618 26.9899 5.65055 26.7809 5.52052C26.5719 5.39064 26.2321 5.18499 26.0259 5.06342C25.8196 4.94202 25.5035 4.76029 25.3235 4.65951C25.1435 4.5589 24.888 4.41822 24.7558 4.34676C24.6234 4.27543 24.3981 4.15622 24.255 4.08186C24.1117 4.00731 23.8459 3.87265 23.664 3.78248C23.4822 3.69216 23.2213 3.56504 23.0846 3.49997C22.9478 3.43504 22.6758 3.3094 22.4801 3.22087C22.2843 3.13234 21.9429 2.98335 21.7213 2.88976C21.4996 2.79617 21.1151 2.64023 20.8671 2.54346C20.6189 2.44666 20.2533 2.30925 20.0546 2.23831C19.8558 2.16735 19.5265 2.05429 19.3226 1.98717C19.1187 1.92003 18.7631 1.80952 18.5323 1.74174C18.3016 1.67398 17.9863 1.58508 17.8316 1.54443C17.677 1.50379 17.42 1.43807 17.2608 1.39856C17.0818 1.35411 16.6411 1.26841 16.1072 1.17428C15.5312 1.07254 15.1577 1.01388 14.9861 0.997964C14.8446 0.984755 14.598 0.965417 14.438 0.954849C14.2781 0.944261 14.0114 0.93395 13.8455 0.931958C13.6795 0.929766 13.4438 0.932437 13.3215 0.937811C13.1992 0.942995 13.0093 0.956372 12.8995 0.96736C12.7897 0.978351 12.5996 1.00359 12.4772 1.02329C12.3545 1.04312 12.1693 1.08047 12.0653 1.10636C11.9614 1.13226 11.7809 1.18531 11.6646 1.22435C11.548 1.26337 11.3872 1.32511 11.3072 1.36176C11.2273 1.39825 11.1041 1.46205 11.0333 1.50344L10.9047 1.57867L10.8938 1.63845C10.8845 1.68952 10.8429 1.73833 10.6087 1.97171C10.4579 2.1222 10.2925 2.29326 10.241 2.35223C10.1895 2.41103 10.0976 2.52589 10.0368 2.60769C9.97599 2.68934 9.8795 2.82965 9.82261 2.91965C9.76556 3.00964 9.67675 3.16012 9.62516 3.25434C9.57362 3.34839 9.48515 3.52373 9.42864 3.644C9.37215 3.76411 9.27965 3.97921 9.22343 4.12191C9.16705 4.26456 9.0811 4.50272 9.03219 4.65125C8.98331 4.79963 8.91238 5.03324 8.87467 5.17019C8.8368 5.30714 8.77808 5.53539 8.74417 5.6776C8.71028 5.81965 8.64582 6.12783 8.60104 6.36231L8.60139 6.362ZM12.063 6.8255C12.1694 6.24251 12.2211 5.99311 12.2721 5.81788C12.3094 5.68982 12.3699 5.49846 12.4065 5.39279C12.4433 5.287 12.509 5.12102 12.5528 5.02379C12.5964 4.92654 12.6573 4.80476 12.6878 4.75319C12.7183 4.70161 12.7686 4.62577 12.7996 4.58456C12.8416 4.52881 12.8741 4.50403 12.9274 4.48782C12.9667 4.4758 13.0672 4.45257 13.1506 4.43628C13.2341 4.41981 13.4011 4.39898 13.5217 4.38972C13.6424 4.38066 13.8285 4.37365 13.9353 4.37437C14.0422 4.37493 14.2277 4.3817 14.3478 4.38933C14.4677 4.39679 14.6849 4.41663 14.8303 4.4333C14.9757 4.44978 15.2873 4.49737 15.5227 4.53888C15.7581 4.58039 16.0849 4.64537 16.2491 4.6831C16.4132 4.72102 16.639 4.77548 16.7507 4.80433C16.8625 4.83318 17.0975 4.89716 17.2732 4.9464C17.4487 4.99563 17.7699 5.09273 17.9869 5.16217C18.2038 5.23176 18.5475 5.34721 18.7507 5.41877C18.9538 5.49048 19.343 5.63631 19.6155 5.74262C19.8882 5.84912 20.2861 6.01134 20.4999 6.1029C20.7139 6.19464 21.0453 6.34153 21.2365 6.42943C21.4278 6.51718 21.7028 6.6466 21.8478 6.71705C21.9926 6.7873 22.2565 6.91838 22.4338 7.00808C22.6112 7.09778 22.9011 7.24844 23.0776 7.34288C23.2541 7.43749 23.5458 7.59778 23.7257 7.69919C23.9056 7.8006 24.1727 7.95411 24.3193 8.04034C24.4659 8.12657 24.7661 8.30876 24.9864 8.44504C25.2066 8.58148 25.5604 8.80705 25.7723 8.94642C25.9844 9.08582 26.3053 9.30184 26.4856 9.42634C26.6658 9.55098 27.0638 9.83854 27.3699 10.0654C27.6761 10.2922 28.0297 10.5595 28.1559 10.6593C28.2821 10.7592 28.5237 10.9539 28.6925 11.092C28.8613 11.2303 29.1592 11.4814 29.3541 11.6501C29.5491 11.8188 29.8384 12.0753 29.9972 12.2203C30.1559 12.3651 30.3897 12.5828 30.5167 12.7039C30.6435 12.8252 30.882 13.058 31.0464 13.2216C31.2108 13.3853 31.525 13.7099 31.7445 13.9434C31.9641 14.1766 32.2569 14.4966 32.3955 14.6542C32.534 14.8117 32.7386 15.049 32.8501 15.1815C32.9616 15.3137 33.1493 15.5419 33.2674 15.6882C33.3854 15.8346 33.5897 16.0943 33.7213 16.265C33.853 16.4359 34.1608 16.8613 34.4053 17.2103C34.6498 17.5592 34.9475 17.998 35.067 18.1854C35.1863 18.3726 35.3838 18.6903 35.5059 18.8911C35.628 19.0919 35.8126 19.4033 35.9162 19.5832C36.0198 19.763 36.1945 20.0753 36.3044 20.2773C36.4144 20.4793 36.5935 20.8194 36.7026 21.033C36.8116 21.2466 36.9914 21.6099 37.1019 21.8404C37.2124 22.0709 37.4192 22.5258 37.5613 22.8517C37.7034 23.1775 37.8783 23.5901 37.9499 23.7688C38.0217 23.9476 38.128 24.2196 38.1863 24.3736C38.2447 24.5275 38.3445 24.7984 38.4082 24.9757C38.4718 25.1531 38.5824 25.4735 38.6535 25.6881C38.7249 25.9026 38.8544 26.3147 38.9414 26.6039C39.0285 26.8929 39.1492 27.3139 39.2099 27.539C39.2704 27.7643 39.3565 28.0989 39.4011 28.2827C39.4457 28.4665 39.5181 28.7775 39.5621 28.974C39.6061 29.1704 39.6752 29.4984 39.716 29.7029C39.7568 29.9074 39.8212 30.2526 39.859 30.4703C39.897 30.6879 39.958 31.0696 39.9948 31.3184C40.0317 31.5673 40.078 31.9009 40.0977 32.0599L40.1336 32.3489L34.933 35.9861L29.7295 39.6237L29.4698 39.4911C29.3269 39.4181 29.0053 39.2473 28.7552 39.1115C28.5049 38.9756 28.1767 38.793 28.0259 38.7059C27.8749 38.6187 27.6084 38.4614 27.4338 38.3564C27.259 38.2513 26.9869 38.0839 26.8293 37.9843C26.6715 37.8845 26.4043 37.7112 26.2355 37.599C26.0666 37.487 25.7907 37.2999 25.6223 37.1834C25.4539 37.0669 25.0982 36.8105 24.8319 36.6136C24.5654 36.4166 24.2248 36.1589 24.0748 36.041C23.9247 35.9232 23.6702 35.7188 23.5092 35.587C23.3481 35.4551 23.0281 35.1843 22.7982 34.9849C22.5681 34.7855 22.2534 34.5062 22.0986 34.3641C21.9439 34.2221 21.6664 33.9604 21.4821 33.7824C21.2977 33.6045 21.0346 33.3448 20.8974 33.2054C20.7602 33.066 20.5297 32.8268 20.385 32.674C20.2405 32.5212 20.0059 32.2668 19.8637 32.1088C19.7215 31.9508 19.5074 31.7083 19.3879 31.5699C19.2685 31.4315 19.0436 31.1638 18.8881 30.975C18.7326 30.7862 18.5123 30.5127 18.3987 30.3673C18.2849 30.2219 18.1115 29.9966 18.013 29.8668C17.9145 29.7368 17.7053 29.4497 17.5479 29.2287C17.3906 29.0078 17.1502 28.6566 17.0136 28.4486C16.8772 28.2404 16.7034 27.9712 16.6277 27.8501C16.5518 27.729 16.4067 27.4905 16.305 27.32C16.2033 27.1495 16.0392 26.8671 15.94 26.6926C15.8411 26.5179 15.6905 26.2454 15.6057 26.0869C15.5209 25.9283 15.3775 25.6533 15.2872 25.4759C15.1969 25.2984 15.0427 24.9847 14.9445 24.7789C14.8463 24.5731 14.6995 24.2571 14.6185 24.0768C14.5376 23.8964 14.4066 23.5943 14.3277 23.4054C14.2487 23.2163 14.1206 22.9 14.043 22.7024C13.9655 22.5046 13.8474 22.1938 13.7806 22.0115C13.7137 21.8291 13.608 21.5314 13.5457 21.3499C13.4832 21.1683 13.3715 20.8291 13.2973 20.5962C13.223 20.3631 13.1139 20.0024 13.0546 19.7945C12.9952 19.5865 12.9059 19.2623 12.8559 19.074C12.8059 18.8856 12.7268 18.5742 12.6801 18.382C12.6333 18.1897 12.5551 17.8491 12.5062 17.6251C12.4573 17.401 12.3857 17.0542 12.3472 16.8545C12.3087 16.6548 12.2457 16.3057 12.2071 16.0791C12.1685 15.8523 12.11 15.4821 12.0772 15.2565C12.0445 15.0308 11.9979 14.6811 11.9738 14.4794C11.9499 14.2777 11.9153 13.9667 11.8972 13.7886C11.8791 13.6103 11.8473 13.2339 11.8266 12.952C11.8058 12.6701 11.7824 12.3023 11.7745 12.135C11.7668 11.9675 11.7566 11.6894 11.7521 11.5169C11.7477 11.3444 11.7429 11.0645 11.7416 10.8949C11.7405 10.7253 11.7422 10.4217 11.7457 10.2204C11.7493 10.019 11.7577 9.71941 11.7645 9.55464C11.7715 9.38974 11.7891 9.0844 11.8037 8.87609C11.8184 8.66765 11.8409 8.38896 11.8538 8.2566C11.8665 8.12421 11.8876 7.9223 11.9004 7.80789C11.9132 7.69346 11.9873 7.25118 12.0652 6.8251L12.063 6.8255ZM20.7956 37.9089C20.7971 37.8935 20.8008 37.8813 20.8046 37.8819C20.808 37.8826 20.8901 37.9493 20.9868 38.0301C21.0835 38.111 21.3171 38.3017 21.506 38.4538C21.695 38.6059 22.0146 38.8576 22.2165 39.013C22.4182 39.1684 22.766 39.4281 22.9891 39.5904C23.2122 39.7524 23.5618 40.0008 23.7662 40.1421C23.9704 40.2833 24.3434 40.5335 24.5949 40.6979C24.8464 40.8622 25.2282 41.1053 25.4437 41.2379C25.6591 41.3707 26.0041 41.5781 26.2105 41.6989C26.4168 41.8198 26.6045 41.927 26.6274 41.9372C26.6621 41.9528 26.6668 41.9628 26.6554 41.9962C26.6474 42.018 25.9656 43.641 25.14 45.6027C24.3141 47.564 23.6347 49.1678 23.6299 49.1666C23.6252 49.1654 23.4845 48.8487 23.3174 48.4628C23.1502 48.0771 22.821 47.3199 22.5858 46.7803C22.3509 46.2406 22.0774 45.6122 21.9784 45.3839C21.8795 45.1554 21.7539 44.858 21.6995 44.7227C21.6451 44.5874 21.5586 44.3592 21.5075 44.2156C21.4565 44.0719 21.3788 43.8415 21.3351 43.7037C21.2914 43.5658 21.2238 43.3336 21.185 43.1877C21.1462 43.0416 21.0955 42.8417 21.0723 42.7435C21.0491 42.645 21.0055 42.4428 20.9752 42.2938C20.9451 42.1449 20.8973 41.8757 20.8692 41.6958C20.8411 41.5157 20.8031 41.2296 20.7847 41.0599C20.7664 40.8902 20.7423 40.6142 20.7315 40.4467C20.7205 40.2791 20.7091 40.0315 20.7061 39.8963C20.7031 39.7612 20.7019 39.5367 20.7033 39.3977C20.7048 39.2586 20.7131 39.003 20.7217 38.8298C20.7306 38.6564 20.749 38.4029 20.7628 38.2661C20.7766 38.1294 20.7889 37.9993 20.7904 37.9773C20.7915 37.9549 20.7938 37.9242 20.7952 37.9087L20.7956 37.9089ZM32.0383 42.27C32.0391 42.2611 34.2408 40.7151 36.931 38.8344C40.4445 36.378 41.8277 35.4195 41.8417 35.4311C41.8523 35.4402 41.9831 35.5689 42.1324 35.7169C42.2814 35.8651 42.4519 36.0522 42.5111 36.1328C42.5703 36.2133 42.6459 36.3382 42.6791 36.4103C42.7121 36.4824 42.7571 36.6056 42.7787 36.684C42.8004 36.7625 42.8249 36.8914 42.8332 36.9705C42.8416 37.0497 42.8435 37.189 42.8375 37.2802C42.8296 37.4022 42.8146 37.488 42.7805 37.6055C42.755 37.6933 42.71 37.8182 42.6804 37.8828C42.6509 37.9476 42.5797 38.0658 42.5225 38.1455C42.4651 38.2251 42.3721 38.3357 42.3157 38.3913C42.2476 38.4583 40.966 39.3728 38.5099 41.1067C36.4731 42.5445 34.7678 43.7411 34.7203 43.7656C34.6726 43.7902 34.5796 43.8312 34.5136 43.8568C34.4475 43.8825 34.3366 43.9153 34.2669 43.9298C34.1973 43.9443 34.0829 43.961 34.0128 43.9668C33.9345 43.9732 33.8071 43.967 33.6838 43.9509C33.5596 43.9347 33.4331 43.9082 33.3532 43.8818C33.282 43.8583 33.1698 43.8109 33.1036 43.7766C33.0376 43.7422 32.9314 43.6759 32.8678 43.6289C32.8042 43.5819 32.7138 43.5046 32.6671 43.4571C32.6203 43.4095 32.5493 43.3283 32.5094 43.2764C32.4694 43.2244 32.4124 43.136 32.3827 43.08C32.3531 43.0239 32.2631 42.8223 32.1829 42.6321C32.1027 42.4418 32.0376 42.2789 32.0383 42.2701L32.0383 42.27ZM41.608 23.3989C41.609 23.3927 41.6574 23.3999 41.7154 23.415C41.7733 23.4301 41.9645 23.4823 42.1403 23.531C42.316 23.5798 42.602 23.6668 42.7762 23.7245C42.9504 23.7821 43.2443 23.8879 43.4294 23.9599C43.6144 24.0317 43.8898 24.1459 44.0412 24.2135C44.1925 24.2813 44.4205 24.3876 44.5476 24.45C44.6749 24.5124 44.8827 24.6196 45.0095 24.6883C45.1365 24.7569 45.36 24.8843 45.5065 24.9711C45.653 25.0581 45.8586 25.1848 45.9637 25.2526C46.0688 25.3204 46.2755 25.4606 46.4234 25.564C46.5713 25.6673 46.8139 25.8471 46.9626 25.9636C47.1112 26.08 47.3363 26.2642 47.4627 26.3726C47.5892 26.4809 47.7451 26.6183 47.8092 26.6775C47.8734 26.7369 47.9212 26.7906 47.9153 26.7971C47.9095 26.8038 48.6465 27.5008 49.5528 28.3464C50.4592 29.192 51.2006 29.8881 51.2 29.893C51.1995 29.8979 49.4465 29.9874 47.3045 30.0915C45.1624 30.1957 43.4018 30.2796 43.3917 30.2778C43.3818 30.2759 43.3723 30.254 43.3704 30.229C43.3688 30.2041 43.336 30.0054 43.2977 29.7878C43.2595 29.57 43.1923 29.2094 43.1484 28.9863C43.1044 28.7631 43.0255 28.3856 42.973 28.1475C42.9204 27.9092 42.8403 27.561 42.7947 27.3735C42.7493 27.186 42.6616 26.84 42.5998 26.6047C42.538 26.3694 42.4078 25.9058 42.3103 25.5744C42.2128 25.2431 42.0638 24.7615 41.9794 24.5042C41.8949 24.247 41.7764 23.8956 41.7159 23.7233C41.6555 23.5511 41.6069 23.4051 41.608 23.399L41.608 23.3989ZM39.1554 44.9218L39.1626 44.8673L40.5066 43.9307L41.8509 42.994L41.9381 43.0191C41.9862 43.0329 42.6343 43.1994 43.3785 43.389C44.1225 43.5788 44.7452 43.7396 44.7619 43.7465C44.7787 43.7535 44.887 43.8482 45.0026 43.9571C45.1183 44.0659 45.2871 44.2342 45.378 44.3309C45.4688 44.4277 45.625 44.6049 45.7253 44.725C45.8254 44.845 46.0076 45.0859 46.13 45.2604C46.2525 45.4349 46.412 45.6797 46.4844 45.8048C46.5569 45.9297 46.6521 46.1007 46.6961 46.1849C46.7401 46.2688 46.8194 46.4302 46.8723 46.5432C46.9255 46.656 47.0252 46.8939 47.094 47.0719C47.1629 47.2497 47.2684 47.5616 47.3284 47.7652C47.3885 47.9687 47.458 48.2233 47.483 48.331C47.508 48.4386 47.5524 48.6546 47.5819 48.8109C47.6114 48.9673 47.6511 49.2166 47.6703 49.3649C47.6896 49.5134 47.7165 49.7763 47.7299 49.9492C47.7434 50.1223 47.7572 50.3927 47.7606 50.5505C47.764 50.7081 47.7628 50.9649 47.7581 51.1212C47.7533 51.2774 47.7381 51.5392 47.7242 51.7028C47.7086 51.8887 47.672 52.1546 47.6267 52.4118C47.5867 52.6382 47.5327 52.8966 47.5064 52.9863C47.48 53.0758 47.4311 53.2214 47.3974 53.3098C47.3638 53.3981 47.3185 53.504 47.2968 53.545C47.275 53.5861 47.2366 53.6423 47.2115 53.67C47.1863 53.6977 47.1274 53.7438 47.0805 53.7724C47.0335 53.8008 46.9377 53.8371 46.8674 53.8528C46.797 53.8685 46.6716 53.8841 46.5885 53.8874C46.5055 53.8907 46.3481 53.8828 46.2388 53.8698C46.1294 53.8568 45.9226 53.8202 45.7791 53.7887C45.6356 53.7571 45.4362 53.7051 45.3358 53.6732C45.2355 53.6413 45.0588 53.5801 44.943 53.5372C44.8273 53.4941 44.5962 53.399 44.4293 53.3256C44.2624 53.2525 44.0248 53.1404 43.9012 53.0768C43.7775 53.0133 43.5922 52.9148 43.4893 52.858C43.3864 52.8012 43.213 52.7002 43.1039 52.6337C42.9949 52.5673 42.81 52.45 42.6933 52.3731C42.5764 52.2963 42.3926 52.1709 42.2848 52.0943C42.1769 52.0177 41.9885 51.8763 41.8662 51.7801C41.7438 51.6838 41.5481 51.5221 41.4311 51.4207C41.3142 51.3193 41.1334 51.1554 41.0295 51.0565C40.9256 50.9575 40.7354 50.764 40.6069 50.6263C40.4783 50.4888 40.3005 50.2879 40.2117 50.1798C40.1228 50.0718 39.9559 49.8491 39.8407 49.6848C39.7253 49.5206 39.5668 49.2757 39.4881 49.1407C39.4096 49.0056 39.2926 48.7905 39.2283 48.6624C39.1639 48.5344 39.0744 48.3459 39.0293 48.2438C38.9842 48.1416 38.9219 47.9899 38.8905 47.9066C38.8413 47.7757 38.8351 47.7405 38.8439 47.6455C38.8496 47.5851 38.9104 47.0498 38.9791 46.456C39.0478 45.8622 39.1139 45.2863 39.1261 45.1764C39.1382 45.0662 39.1513 44.9517 39.1555 44.9217L39.1554 44.9218ZM14.2594 12.5183C14.2206 12.7179 14.1836 12.948 14.1772 13.0295C14.171 13.1111 14.1645 13.2716 14.1629 13.386C14.1615 13.5007 14.1653 13.6722 14.1713 13.7676C14.1776 13.8629 14.199 14.0525 14.2191 14.1888C14.2392 14.3252 14.28 14.5316 14.3095 14.6476C14.3391 14.7636 14.3925 14.9436 14.4283 15.0474C14.4639 15.1511 14.5316 15.3236 14.5783 15.4306C14.6251 15.5376 14.7078 15.7064 14.7622 15.8057C14.8164 15.905 14.9123 16.0646 14.9752 16.1602C15.0383 16.256 15.1465 16.406 15.2158 16.4938C15.2852 16.5816 15.4105 16.7264 15.4941 16.8156C15.5778 16.9048 15.7097 17.0354 15.7872 17.1057C15.8647 17.176 16.019 17.3019 16.1301 17.3857C16.2411 17.4694 16.4184 17.5901 16.524 17.6539C16.6296 17.7179 16.8006 17.8117 16.9041 17.8624C17.0074 17.9133 17.1746 17.9875 17.2754 18.0273C17.3762 18.0673 17.5446 18.1262 17.6495 18.1582C17.7545 18.1903 17.9444 18.2396 18.0715 18.2677C18.2027 18.2967 18.4069 18.3293 18.5436 18.3428C18.6762 18.3559 18.8613 18.3688 18.9553 18.3717C19.0492 18.3743 19.2114 18.3729 19.3154 18.3686C19.4195 18.3641 19.6256 18.343 19.7732 18.3217C19.9207 18.3004 20.1336 18.2612 20.2461 18.2347C20.3586 18.2082 20.5446 18.1545 20.6594 18.1153C20.7741 18.0763 20.9568 18.0055 21.0653 17.9582C21.1737 17.9109 21.3508 17.8241 21.4588 17.7657C21.5667 17.7072 21.7685 17.5797 21.9072 17.4826C22.0458 17.3854 22.2348 17.2394 22.3271 17.1582C22.4194 17.0769 22.5616 16.9404 22.643 16.8549C22.7246 16.7693 22.845 16.6333 22.9109 16.5527C22.9766 16.4723 23.0739 16.344 23.127 16.268C23.1801 16.1919 23.2754 16.0417 23.3387 15.9342C23.4021 15.8269 23.496 15.6473 23.5475 15.5351C23.599 15.423 23.669 15.2555 23.7033 15.1628C23.7377 15.0701 23.7845 14.9315 23.8077 14.8548C23.8307 14.7781 23.8741 14.6021 23.9042 14.4638C23.9364 14.3158 23.9687 14.1118 23.9829 13.9677C23.996 13.8331 24.0079 13.6333 24.0092 13.5235C24.0106 13.4138 24.0069 13.246 24.0006 13.1507C23.9944 13.0553 23.9781 12.8946 23.9644 12.7935C23.9507 12.6923 23.9219 12.5284 23.9006 12.4294C23.8792 12.3301 23.8339 12.157 23.8002 12.0444C23.7663 11.9317 23.7047 11.7533 23.6634 11.6474C23.6221 11.5417 23.5331 11.3462 23.4658 11.2127C23.3822 11.0474 23.2706 10.8664 23.114 10.6431C22.9567 10.4189 22.826 10.254 22.6986 10.1189C22.5963 10.0106 22.4428 9.85987 22.3573 9.78393C22.2718 9.70782 22.1204 9.5855 22.021 9.51198C21.9217 9.43833 21.7707 9.33518 21.6855 9.28262C21.6005 9.22993 21.4704 9.15475 21.3964 9.11544C21.3225 9.07596 21.1835 9.0087 21.0878 8.96571C20.9921 8.92287 20.8302 8.85828 20.7282 8.82218C20.6262 8.78611 20.4483 8.73103 20.3329 8.70008C20.2027 8.66505 19.9991 8.62541 19.7965 8.59555C19.595 8.56589 19.3827 8.54512 19.2422 8.54139C19.1169 8.53807 18.8916 8.54338 18.7416 8.55333C18.5914 8.56323 18.3777 8.58724 18.2664 8.60662C18.1551 8.62601 17.978 8.66349 17.8727 8.68965C17.7676 8.71582 17.6009 8.76492 17.5021 8.79874C17.4035 8.83244 17.2672 8.88333 17.1992 8.91182C17.1313 8.94031 17.008 8.99609 16.9255 9.03589C16.8428 9.07581 16.7131 9.14416 16.6372 9.18806C16.5611 9.2321 16.3958 9.33922 16.2696 9.42632C16.1434 9.51342 15.9595 9.6548 15.8608 9.7407C15.7621 9.82645 15.6229 9.95612 15.5516 10.0289C15.4801 10.1015 15.3554 10.2421 15.2748 10.3409C15.1939 10.4399 15.0821 10.5882 15.0261 10.6702C14.9703 10.7522 14.8832 10.8894 14.8325 10.975C14.7819 11.0606 14.6998 11.2161 14.65 11.3206C14.6002 11.4249 14.5328 11.5782 14.5 11.661C14.4673 11.7439 14.4155 11.889 14.3852 11.9835C14.3542 12.0792 14.2986 12.316 14.2593 12.5183L14.2594 12.5183ZM17.7263 13.1704C17.7433 13.0971 17.7751 12.9945 17.797 12.9423C17.8188 12.8902 17.8686 12.7947 17.9077 12.7299C17.9467 12.6653 18.022 12.5665 18.075 12.5104C18.1281 12.4543 18.2066 12.3807 18.2497 12.3468C18.2928 12.3128 18.3867 12.2546 18.4586 12.2174C18.5307 12.1802 18.6517 12.1311 18.7275 12.1088C18.8034 12.0862 18.9255 12.0614 18.9988 12.0536C19.112 12.0417 19.1688 12.046 19.3777 12.0827C19.5673 12.116 19.6476 12.137 19.7292 12.1749C19.7874 12.2018 19.8885 12.2612 19.9539 12.3067C20.0194 12.3522 20.1032 12.4191 20.1402 12.4553C20.1773 12.4914 20.2424 12.5678 20.2851 12.6253C20.3276 12.6825 20.3863 12.7789 20.4152 12.8393C20.4441 12.8996 20.4855 13.0143 20.507 13.0941C20.5286 13.174 20.5509 13.3052 20.5564 13.3858C20.5644 13.5013 20.5584 13.5779 20.5282 13.7461C20.4965 13.9239 20.479 13.9838 20.4229 14.104C20.3861 14.1833 20.3197 14.2965 20.2758 14.3555C20.2317 14.4145 20.162 14.4973 20.1209 14.5397C20.0798 14.5821 19.9982 14.6501 19.9396 14.691C19.8811 14.7319 19.7776 14.7897 19.7094 14.8195C19.6414 14.8491 19.5339 14.8852 19.4707 14.8995C19.4074 14.9138 19.3115 14.9292 19.2576 14.9336C19.2038 14.9378 19.0956 14.9375 19.0174 14.9327C18.9181 14.9266 18.8321 14.9108 18.7324 14.8804C18.6539 14.8566 18.5358 14.8092 18.4699 14.7749C18.404 14.7407 18.3176 14.6885 18.2779 14.6588C18.2382 14.6292 18.1681 14.5686 18.1221 14.5239C18.0761 14.4794 18.0127 14.4091 17.9811 14.3678C17.9496 14.3265 17.8969 14.2435 17.8642 14.1832C17.8314 14.1229 17.7871 14.0221 17.7657 13.9591C17.7442 13.8962 17.7181 13.7924 17.7078 13.7285C17.6974 13.6648 17.6887 13.5685 17.6884 13.5146C17.6881 13.4607 17.6896 13.3911 17.6915 13.3601C17.6934 13.3289 17.7092 13.2436 17.7261 13.1704L17.7263 13.1704ZM20.4136 23.5915C20.3633 23.8608 20.3192 24.1137 20.3157 24.1536C20.3123 24.1933 20.3035 24.3239 20.2961 24.4439C20.2887 24.5636 20.283 24.7647 20.2835 24.8904C20.2839 25.0162 20.2917 25.2194 20.3005 25.3422C20.3094 25.4649 20.3298 25.6632 20.346 25.7827C20.3622 25.9023 20.3968 26.1045 20.4229 26.2322C20.449 26.3599 20.4964 26.5592 20.5285 26.6752C20.5603 26.7911 20.6219 26.9877 20.6652 27.112C20.7087 27.2364 20.7984 27.4614 20.8646 27.6123C20.9307 27.763 21.0379 27.983 21.1025 28.1008C21.1672 28.2186 21.283 28.4154 21.3599 28.5382C21.437 28.6609 21.5799 28.865 21.6775 28.9917C21.7753 29.1183 21.9129 29.2873 21.9834 29.367C22.054 29.4468 22.1808 29.582 22.2654 29.6676C22.3502 29.753 22.4892 29.8859 22.5745 29.963C22.6599 30.0399 22.8662 30.2045 23.033 30.3289C23.1998 30.4533 23.416 30.6036 23.5135 30.6629C23.6109 30.7221 23.7712 30.8144 23.8696 30.8679C23.968 30.9217 24.1506 31.0123 24.2753 31.0694C24.4001 31.1267 24.5918 31.2073 24.7013 31.249C24.8108 31.2905 24.9876 31.3512 25.0943 31.384C25.2007 31.4169 25.4044 31.4726 25.5464 31.5078C25.6973 31.5454 25.934 31.5905 26.1156 31.6167C26.2865 31.6411 26.5256 31.6679 26.6469 31.6763C26.7681 31.6846 26.9548 31.6919 27.0618 31.6925C27.1687 31.693 27.3409 31.6899 27.4446 31.6855C27.5482 31.6811 27.7154 31.6693 27.816 31.6593C27.9167 31.6493 28.1145 31.6219 28.2558 31.5983C28.3969 31.5747 28.6104 31.5319 28.7301 31.5032C28.8498 31.4746 29.0492 31.419 29.1733 31.3798C29.2972 31.3406 29.5042 31.2671 29.6329 31.2165C29.7616 31.1658 29.9456 31.0873 30.0419 31.0418C30.138 30.9964 30.2804 30.9248 30.3582 30.8831C30.436 30.8413 30.586 30.7547 30.6917 30.6907C30.7973 30.6266 30.9934 30.4954 31.1272 30.399C31.2611 30.3027 31.4391 30.166 31.523 30.0955C31.6067 30.025 31.7385 29.9078 31.8159 29.835C31.8931 29.7621 32.0062 29.6499 32.0671 29.5855C32.128 29.5212 32.2308 29.4081 32.2954 29.3345C32.36 29.2609 32.4684 29.1293 32.5362 29.0424C32.6038 28.9554 32.7104 28.8087 32.7729 28.7166C32.8354 28.6243 32.9477 28.4458 33.0223 28.3199C33.097 28.1939 33.1976 28.0097 33.246 27.9105C33.2942 27.8113 33.3536 27.6859 33.3778 27.6319C33.4021 27.5777 33.4473 27.4715 33.4783 27.3956C33.5093 27.3198 33.5748 27.1369 33.6238 26.9888C33.6727 26.8409 33.7488 26.5664 33.7924 26.3789C33.8548 26.1126 33.8805 25.9655 33.9108 25.7062C33.932 25.5237 33.9532 25.2905 33.958 25.1882C33.9626 25.0859 33.9652 24.9027 33.9636 24.7812C33.9619 24.6597 33.9543 24.4711 33.9466 24.362C33.9387 24.2529 33.9175 24.0582 33.8993 23.9294C33.881 23.8005 33.8487 23.6074 33.8274 23.5005C33.8062 23.3936 33.7513 23.1746 33.7057 23.014C33.66 22.8533 33.5914 22.6356 33.5531 22.5301C33.5148 22.4246 33.4413 22.2427 33.39 22.126C33.3385 22.0092 33.2566 21.8358 33.2079 21.7407C33.1591 21.6457 33.083 21.5062 33.0386 21.4306C32.9944 21.3551 32.9013 21.2057 32.8319 21.0986C32.7624 20.9915 32.6352 20.8136 32.5491 20.7031C32.463 20.5928 32.3258 20.4271 32.2443 20.3352C32.1626 20.2431 32.0274 20.0995 31.9438 20.016C31.8601 19.9324 31.6991 19.7842 31.5861 19.6864C31.4728 19.5888 31.2761 19.433 31.1486 19.3402C31.0212 19.2474 30.8239 19.1147 30.7103 19.0453C30.5967 18.9759 30.4059 18.8683 30.2866 18.8061C30.1672 18.7439 29.9704 18.6503 29.8494 18.5981C29.7281 18.5459 29.5704 18.4814 29.4987 18.4547C29.4269 18.4282 29.2603 18.3722 29.1284 18.3304C28.965 18.2785 28.7552 18.2277 28.4701 18.1709C28.2042 18.1179 27.9638 18.0788 27.8106 18.0642C27.6781 18.0514 27.4672 18.0378 27.3421 18.0337C27.2169 18.0296 26.9961 18.0308 26.8513 18.0361C26.7065 18.0416 26.479 18.0589 26.346 18.0749C26.2127 18.0909 26.0197 18.1186 25.9169 18.1363C25.8141 18.1539 25.6462 18.1885 25.5438 18.213C25.4414 18.2376 25.2722 18.283 25.1679 18.3139C25.0636 18.3448 24.8965 18.3997 24.7967 18.4359C24.6968 18.472 24.5588 18.5252 24.4898 18.5538C24.421 18.5825 24.2682 18.652 24.1505 18.7081C24.0327 18.7644 23.8384 18.8662 23.7188 18.9346C23.599 19.0029 23.4016 19.1261 23.2801 19.2083C23.1585 19.2905 22.9647 19.4329 22.8496 19.5249C22.7345 19.6167 22.5466 19.7797 22.4322 19.8872C22.3178 19.9946 22.1429 20.1727 22.0435 20.283C21.9442 20.3932 21.7833 20.5876 21.6861 20.7149C21.589 20.8422 21.448 21.0411 21.3732 21.1568C21.2982 21.2726 21.1782 21.4753 21.1064 21.6074C21.0347 21.7395 20.9271 21.9599 20.8669 22.097C20.8069 22.2343 20.7279 22.4294 20.6913 22.5307C20.6548 22.6319 20.598 22.8018 20.565 22.9083C20.5256 23.0358 20.474 23.2689 20.4135 23.5915L20.4136 23.5915ZM23.8482 24.2782C23.8721 24.1386 23.9093 23.9652 23.9314 23.893C23.9532 23.8208 23.9991 23.6895 24.0333 23.6014C24.0676 23.5131 24.1436 23.3511 24.2025 23.2413C24.2613 23.1314 24.367 22.9629 24.4373 22.8666C24.5075 22.7703 24.6274 22.6252 24.7036 22.5445C24.7798 22.4636 24.9071 22.343 24.9867 22.2762C25.0662 22.2094 25.2055 22.1052 25.2962 22.0447C25.3868 21.9841 25.5281 21.9002 25.6099 21.8583C25.6917 21.8162 25.8238 21.7558 25.9032 21.724C25.9827 21.6921 26.1407 21.64 26.2542 21.608C26.3677 21.5761 26.5511 21.5366 26.6619 21.5202C26.7726 21.504 26.9554 21.4886 27.0683 21.486C27.1811 21.4835 27.3677 21.4895 27.4828 21.4993C27.6029 21.5096 27.769 21.5353 27.8725 21.5597C27.9717 21.5831 28.1259 21.6263 28.2152 21.6556C28.3043 21.6848 28.4526 21.7431 28.5446 21.785C28.6368 21.8269 28.7783 21.9001 28.8591 21.9478C28.9401 21.9954 29.0698 22.0814 29.1471 22.1388C29.2246 22.1962 29.3309 22.2812 29.3835 22.3275C29.4362 22.374 29.5351 22.4708 29.6034 22.5429C29.6716 22.6148 29.7834 22.7491 29.8517 22.8414C29.9201 22.9336 30.0183 23.0826 30.0701 23.1725C30.1218 23.2624 30.2 23.4194 30.2437 23.5214C30.2873 23.6232 30.35 23.7996 30.383 23.9131C30.4157 24.0266 30.4547 24.1957 30.4695 24.2887C30.4844 24.3818 30.5016 24.5354 30.5079 24.6301C30.5141 24.7247 30.5154 24.8881 30.5107 24.9932C30.5061 25.0983 30.4835 25.2905 30.4606 25.4201C30.4378 25.5497 30.3934 25.7373 30.3621 25.8369C30.3307 25.9364 30.2752 26.0868 30.2388 26.1709C30.2024 26.2552 30.1334 26.3942 30.0853 26.48C30.0373 26.5658 29.9414 26.7141 29.8722 26.8097C29.8031 26.9052 29.684 27.0493 29.6078 27.1302C29.5316 27.211 29.4042 27.3318 29.3246 27.3986C29.2452 27.4654 29.1059 27.5695 29.0151 27.6301C28.9245 27.6907 28.7832 27.7746 28.7015 27.8165C28.6197 27.8585 28.491 27.9176 28.4155 27.9477C28.3401 27.9778 28.2013 28.0255 28.1073 28.0534C28.0131 28.0814 27.8605 28.1183 27.7681 28.1353C27.6758 28.1525 27.5178 28.1728 27.4169 28.1806C27.3161 28.1885 27.1531 28.1935 27.0545 28.1918C26.9297 28.1897 26.7838 28.1726 26.5741 28.1358C26.3664 28.0992 26.2199 28.0645 26.1021 28.0244C26.0081 27.9923 25.8565 27.9316 25.765 27.8895C25.6735 27.8476 25.5325 27.7743 25.4518 27.7267C25.3709 27.6792 25.2404 27.5925 25.1615 27.5341C25.0827 27.4756 24.9686 27.3834 24.908 27.3293C24.8474 27.2752 24.7467 27.1756 24.6842 27.1082C24.6217 27.0408 24.5176 26.9136 24.4532 26.8257C24.3886 26.7378 24.2933 26.5922 24.2415 26.5023C24.1896 26.4124 24.1113 26.2553 24.0677 26.1534C24.0241 26.0514 23.9615 25.8752 23.9287 25.7617C23.8959 25.6482 23.8554 25.4684 23.8386 25.3623C23.8219 25.256 23.8046 25.0981 23.8004 25.011C23.7961 24.924 23.7954 24.7807 23.7989 24.6925C23.8023 24.6044 23.8245 24.418 23.8482 24.2782L23.8482 24.2782Z" fill="#32BAB0"/>
</svg>
