<svg width="62" height="62" viewBox="0 0 62 62" fill="none" xmlns="http://www.w3.org/2000/svg">
<path d="M7.17658 47.5729C7.17658 35.6603 1.00586 27.4798 1.00586 21.7396C1.00586 15.9994 4.30564 3.94386 30.7125 3.94386C57.1193 3.94386 60.9943 20.162 60.9943 26.4757C60.996 56.0411 7.17658 68.6701 7.17658 47.5729Z" fill="#EFEFEF"/>
<path d="M48.0547 4.5062L49.2725 3.2884L51.7081 5.72399L50.4903 6.94179L48.0547 4.5062Z" fill="#A4AFC1"/>
<path d="M55.0566 11.5088L56.2744 10.291L58.71 12.7266L57.4922 13.9444L55.0566 11.5088Z" fill="#A4AFC1"/>
<path d="M54.752 5.72461L57.1875 3.28902L58.4053 4.50682L55.9698 6.9424L54.752 5.72461Z" fill="#A4AFC1"/>
<path d="M47.7904 24.2489C47.7904 27.1939 46.9465 33.2561 46.9465 33.2561C46.9465 33.9106 46.912 34.5478 46.8431 35.185L44.5698 28.4339C27.1065 28.4339 24.592 22.785 24.3337 22.0789C25.1087 26.9528 17.5654 28.0895 14.4654 28.3478C14.3276 26.8839 14.207 25.3511 14.207 24.2489C14.207 15.2244 22.5943 15.2244 22.5943 15.2244C22.5943 15.2244 25.9698 11.625 30.9987 11.625C37.7154 11.625 47.7904 15.3278 47.7904 24.2489Z" fill="#5F01F5"/>
<path d="M46.8446 35.185C46.569 37.8028 45.7424 40.3172 44.4507 42.47C44.4335 42.4872 44.4335 42.4872 44.4335 42.4872C41.609 47.2406 36.649 50.375 31.0001 50.375C25.2651 50.375 20.2362 47.1372 17.429 42.2633C17.429 42.2633 17.429 42.2633 17.4118 42.2461C16.964 41.4711 16.4646 40.4378 16.1718 39.5594L14.5185 28.7956C14.5012 28.6406 14.484 28.5028 14.4668 28.3478C17.5668 28.0894 25.1101 26.9528 24.3351 22.0789C24.5935 22.785 27.1079 28.4339 44.5712 28.4339L46.8446 35.185Z" fill="#F3F3F1"/>
<path d="M46.8789 36.6144H46.9306C48.8422 36.6144 50.375 35.2539 50.375 33.5833C50.375 32.1539 49.2211 30.9139 47.6539 30.6383L46.8789 36.6144Z" fill="#F3F3F1"/>
<path d="M23.25 38.3194H15.0694C13.1664 38.3194 11.625 36.7781 11.625 34.875V32.2917C11.625 30.3886 13.1664 28.8472 15.0694 28.8472H23.25C25.8661 28.8472 27.9861 30.9673 27.9861 33.5833C27.9861 36.1994 25.8661 38.3194 23.25 38.3194Z" fill="#5F01F5"/>
<path d="M46.8789 36.6144H46.9306C48.8422 36.6144 50.375 35.2539 50.375 33.5833C50.375 32.1539 49.2211 30.9139 47.6539 30.6383L46.8789 36.6144Z" fill="#D5DBE1"/>
<path d="M18.082 24.2489C18.082 15.2244 26.4692 15.2244 26.4692 15.2244C26.4692 15.2244 29.1404 12.3983 33.26 11.7628C32.4798 11.6767 31.7169 11.625 30.9987 11.625C25.9698 11.625 22.5942 15.2244 22.5942 15.2244C22.5942 15.2244 14.207 15.2244 14.207 24.2489C14.207 25.3511 14.3276 26.8839 14.4654 28.3478C15.435 28.2668 16.8386 28.0998 18.2887 27.7605C18.1733 26.4826 18.082 25.2047 18.082 24.2489Z" fill="#5F01F5"/>
<path d="M15.5 34.875V32.2917C15.5 30.3886 17.0414 28.8472 18.9444 28.8472H15.0694C13.1664 28.8472 11.625 30.3886 11.625 32.2917V34.875C11.625 36.7781 13.1664 38.3194 15.0694 38.3194H18.9444C17.0414 38.3194 15.5 36.7781 15.5 34.875Z" fill="#5F01F5"/>
<path d="M14.534 28.9006C14.7096 28.8731 14.8853 28.8472 15.0696 28.8472H18.4021L18.3935 28.7956C18.3762 28.6406 18.359 28.5028 18.3418 28.3478C20.6427 28.1566 25.384 27.4763 27.3628 25.1496C25.0688 23.7684 24.454 22.4027 24.3351 22.0789C25.1101 26.9528 17.5668 28.0894 14.4668 28.3478C14.484 28.5028 14.5012 28.6406 14.5185 28.7956L14.534 28.9006Z" fill="#D5DBE1"/>
<path d="M21.3039 42.2633C21.3039 42.2633 21.3039 42.2633 21.2866 42.2461C20.8389 41.4711 20.3394 40.4378 20.0466 39.5594L19.8555 38.3194H15.9805L16.1716 39.5594C16.4644 40.4378 16.9639 41.4711 17.4116 42.2461C17.4289 42.2633 17.4289 42.2633 17.4289 42.2633C20.2361 47.1372 25.265 50.375 31 50.375C31.663 50.375 32.3123 50.3233 32.953 50.2407C28.0291 49.6069 23.7925 46.5844 21.3039 42.2633Z" fill="#D5DBE1"/>
<path d="M31.0013 51.6667C24.9942 51.6667 19.5261 48.4237 16.359 42.9867C16.3366 42.9557 16.3176 42.9247 16.2987 42.8954C15.8802 42.1738 15.305 41.0268 14.9502 39.9745L14.5369 38.7517L16.9824 37.9233L17.3975 39.1461C17.6334 39.8402 18.0588 40.7667 18.4928 41.5262C18.5152 41.5572 18.5341 41.5882 18.5531 41.6192C21.2466 46.2933 25.9001 49.0833 31.0013 49.0833C36.0216 49.0833 40.6285 46.3691 43.3238 41.8225C43.3445 41.788 43.3651 41.7536 43.391 41.7208C44.8566 39.2684 45.6626 36.2648 45.6626 33.2527C45.6626 33.1924 45.666 33.1338 45.6746 33.0753C45.6815 33.015 46.5013 27.0733 46.5013 24.242C46.5013 16.43 37.4372 12.9167 31.0013 12.9167C26.6148 12.9167 23.5768 16.0821 23.5475 16.1131C23.303 16.3715 22.9602 16.5213 22.6055 16.5213C21.8839 16.5282 15.5013 16.7917 15.5013 24.242C15.5013 25.2736 15.6064 26.8443 15.7958 28.6681L15.9301 29.9529L13.3606 30.2216L13.2262 28.9368C13.0867 27.5848 12.918 25.6749 12.918 24.242C12.918 16.5144 18.6168 14.1773 22.063 13.9569C23.1686 12.9408 26.4477 10.3333 31.0013 10.3333C38.5102 10.3333 49.0846 14.6475 49.0846 24.242C49.0846 27.0906 48.3527 32.5552 48.2459 33.344C48.2304 36.8211 47.2763 40.2948 45.5558 43.1331C45.5369 43.1623 45.5196 43.1916 45.4972 43.2192C42.3266 48.5098 36.9137 51.6667 31.0013 51.6667Z" fill="black"/>
<path d="M45.5125 36.1408L43.6008 29.7273C32.2893 29.5912 27.176 27.0509 24.8803 24.9688C22.9996 28.5837 18.0844 30.039 17.8278 30.113L17.1113 27.6313C17.1716 27.6141 23.0203 25.8678 23.0203 22.01C23.0203 21.359 23.5059 20.8079 24.1518 20.7287C24.7959 20.6408 25.4038 21.061 25.564 21.6948C25.5709 21.7086 27.5428 27.1508 44.5636 27.1508C45.1353 27.1508 45.6382 27.5263 45.8018 28.0739L47.9873 35.4037C48.0235 35.5243 48.0407 35.6483 48.0407 35.7723L46.7215 35.7809L45.5125 36.1408Z" fill="black"/>
<path d="M46.9306 37.9061L46.8789 35.3228H46.9306C48.1172 35.3228 49.0834 34.5426 49.0834 33.5833C49.0834 32.7946 48.3721 32.0764 47.43 31.9111L47.8778 29.3656C50.0736 29.7531 51.6667 31.5253 51.6667 33.5833C51.6667 35.9669 49.5415 37.9061 46.9306 37.9061Z" fill="black"/>
<path d="M37.89 36.1667C39.3167 36.1667 40.4733 35.0101 40.4733 33.5833C40.4733 32.1566 39.3167 31 37.89 31C36.4632 31 35.3066 32.1566 35.3066 33.5833C35.3066 35.0101 36.4632 36.1667 37.89 36.1667Z" fill="black"/>
<path d="M31 44.7967C29.3863 44.7967 27.7726 44.4592 26.5153 43.7858L25.377 43.1761L26.598 40.8993L27.7364 41.509C29.5051 42.4597 32.4966 42.4597 34.2653 41.509L35.4037 40.8993L36.6248 43.1761L35.4864 43.7858C34.2275 44.4592 32.6137 44.7967 31 44.7967Z" fill="black"/>
<path d="M23.2487 39.6111H15.0681C12.4555 39.6111 10.332 37.4876 10.332 34.875V32.2917C10.332 29.6791 12.4555 27.5556 15.0681 27.5556H23.2487C26.5726 27.5556 29.2765 30.2595 29.2765 33.5834C29.2765 36.9072 26.5726 39.6111 23.2487 39.6111ZM15.0681 30.1389C13.8815 30.1389 12.9154 31.1051 12.9154 32.2917V34.875C12.9154 36.0616 13.8815 37.0278 15.0681 37.0278H23.2487C25.1483 37.0278 26.6931 35.483 26.6931 33.5834C26.6931 31.6837 25.1483 30.1389 23.2487 30.1389H15.0681Z" fill="black"/>
<path d="M17.2227 32.7308H24.1115V35.3142H17.2227V32.7308Z" fill="black"/>
</svg>
