<svg width="62" height="62" viewBox="0 0 62 62" fill="none" xmlns="http://www.w3.org/2000/svg">
<path d="M14.4265 7.17649C26.3391 7.17649 34.5196 1.00577 40.2598 1.00577C46 1.00577 58.0555 4.30555 58.0555 30.7124C58.0555 57.1192 41.8373 60.9942 35.5237 60.9942C5.95829 60.9959 -6.67077 7.17649 14.4265 7.17649Z" fill="#EFEFEF"/>
<path d="M48.0547 5.36644L49.2725 4.14864L51.7081 6.58424L50.4903 7.80203L48.0547 5.36644Z" fill="#A4AFC1"/>
<path d="M55.0566 12.369L56.2744 11.1512L58.71 13.5868L57.4922 14.8046L55.0566 12.369Z" fill="#A4AFC1"/>
<path d="M54.752 6.58485L57.1875 4.14927L58.4053 5.36706L55.9698 7.80265L54.752 6.58485Z" fill="#A4AFC1"/>
<path d="M36.5968 12.2967V25.4028H25.4023V12.4344C27.1762 11.935 29.0707 11.6767 31.0168 11.625C32.8251 11.5733 34.754 11.7972 36.5968 12.2967Z" fill="#5F01F5"/>
<path d="M25.404 12.4344V25.4028H15.0879C15.0879 24.8689 15.0879 24.5244 15.0879 24.5244C15.0879 18.0489 19.5312 14.0361 25.404 12.4344Z" fill="#F3F3F1"/>
<path d="M46.9482 24.49V25.4028H36.5977V12.2967C42.0571 13.7606 46.9482 17.67 46.9482 24.49Z" fill="#F3F3F1"/>
<path d="M46.949 25.4028L46.0879 36.5972C45.8812 37.2861 45.6573 37.975 45.3818 38.6294C45.0201 39.4389 44.1246 40.9889 44.1246 40.9889C41.1623 45.8455 35.9784 50.375 31.0184 50.375C26.024 50.375 20.7368 45.7594 17.7573 40.7994C17.7573 40.7994 16.9823 39.37 16.6551 38.6294C16.3796 37.975 16.1557 37.2861 15.949 36.5972L15.0879 25.4028H46.949Z" fill="#F3F3F1"/>
<path d="M46.9306 36.5972H15.0694C13.1664 36.5972 11.625 35.0558 11.625 33.1528V28.8472C11.625 26.9442 13.1664 25.4028 15.0694 25.4028H46.9306C48.8336 25.4028 50.375 26.9442 50.375 28.8472V33.1528C50.375 35.0558 48.8336 36.5972 46.9306 36.5972Z" fill="#5F01F5"/>
<path d="M25.404 13.9775V12.4344C19.5312 14.0361 15.0879 18.0489 15.0879 24.5244V25.4028H18.9629C18.9629 24.8689 18.9629 24.5244 18.9629 24.5244C18.9629 19.5765 21.56 16.0718 25.404 13.9775Z" fill="#D5DBE1"/>
<path d="M36.5977 12.2967V25.4028H40.4727V13.8363C39.2585 13.1698 37.9462 12.6583 36.5977 12.2967Z" fill="#D5DBE1"/>
<path d="M33.5605 11.7352C32.7011 11.6422 31.8452 11.6009 31.0168 11.625C29.0707 11.6767 27.1762 11.935 25.4023 12.4345V25.4028H29.2773V12.4345C30.6396 12.0504 32.0863 11.8489 33.5605 11.7352Z" fill="#5F01F5"/>
<path d="M15.5 33.1528V28.8472C15.5 26.9442 17.0414 25.4028 18.9444 25.4028H15.0694C13.1664 25.4028 11.625 26.9442 11.625 28.8472V33.1528C11.625 35.0558 13.1664 36.5972 15.0694 36.5972H18.9444C17.0414 36.5972 15.5 35.0558 15.5 33.1528Z" fill="#5F01F5"/>
<path d="M21.6306 40.7995C21.6306 40.7995 20.8556 39.37 20.5284 38.6295C20.2528 37.975 20.0289 37.2861 19.8223 36.5972H15.9473C16.1539 37.2861 16.3778 37.975 16.6534 38.6295C16.9806 39.37 17.7556 40.7995 17.7556 40.7995C20.735 45.7595 26.0223 50.375 31.0167 50.375C31.6608 50.375 32.3084 50.2958 32.9542 50.1528C28.5746 49.1781 24.226 45.1205 21.6306 40.7995Z" fill="#D5DBE1"/>
<path d="M46.9293 37.8889H15.0681C12.4555 37.8889 10.332 35.7654 10.332 33.1528V28.8472C10.332 26.2346 12.4555 24.1111 15.0681 24.1111H46.9293C49.5419 24.1111 51.6654 26.2346 51.6654 28.8472V33.1528C51.6654 35.7654 49.5419 37.8889 46.9293 37.8889ZM15.0681 26.6944C13.8815 26.6944 12.9154 27.6606 12.9154 28.8472V33.1528C12.9154 34.3394 13.8815 35.3056 15.0681 35.3056H46.9293C48.1159 35.3056 49.082 34.3394 49.082 33.1528V28.8472C49.082 27.6606 48.1159 26.6944 46.9293 26.6944H15.0681Z" fill="black"/>
<path d="M31.0182 51.6666C25.3142 51.6666 19.6911 46.5413 16.6497 41.4625C16.5911 41.3574 15.811 39.9245 15.4734 39.1358C15.1944 38.4882 14.943 37.7735 14.707 36.9554L17.187 36.2373C17.3937 36.952 17.6107 37.5668 17.8466 38.1179C18.086 38.6811 18.6802 39.7971 18.8886 40.1794C21.4478 44.4454 26.351 49.0833 31.0182 49.0833C35.5838 49.0833 40.4456 44.5384 43.029 40.3155C43.2511 39.9297 43.928 38.7242 44.1898 38.1197C44.4274 37.5668 44.6427 36.952 44.8476 36.2407L47.3294 36.9554C47.0934 37.7718 46.8437 38.4865 46.5613 39.1409C46.1858 40.0107 45.2868 41.5693 45.2489 41.6364C42.1851 46.6429 36.6085 51.6666 31.0182 51.6666Z" fill="black"/>
<path d="M48.2394 25.4028H45.656V24.49C45.656 21.483 44.6158 18.9462 42.5664 16.9501C39.8918 14.3444 35.4777 12.8151 31.0516 12.9167C24.2815 13.0837 16.3783 16.2233 16.3783 24.5262V25.4045H13.7949V24.5262C13.7949 15.0161 22.4284 10.5452 30.9844 10.3351C36.1563 10.2042 41.1645 11.9798 44.3678 15.1005C46.8995 17.5667 48.2394 20.8148 48.2394 24.4917V25.4028Z" fill="black"/>
<path d="M31 44.776C29.3863 44.776 27.7726 44.4385 26.5153 43.7651L25.377 43.1554L26.598 40.8787L27.7364 41.4883C29.5051 42.439 32.4966 42.439 34.2653 41.4883L35.4037 40.8787L36.6248 43.1554L35.4864 43.7651C34.2275 44.4385 32.6137 44.776 31 44.776Z" fill="black"/>
<path d="M24.1113 12.9339H26.6947V24.9722H24.1113V12.9339Z" fill="black"/>
<path d="M35.3066 12.7961H37.89V24.9722H35.3066V12.7961Z" fill="black"/>
<path d="M18.9434 29.2778H43.0545V31.8611H18.9434V29.2778Z" fill="black"/>
</svg>
