<svg width="21" height="21" viewBox="0 0 21 21" fill="none" xmlns="http://www.w3.org/2000/svg">
<path d="M20.1241 3.21896C19.9262 2.68291 19.6106 2.1977 19.2006 1.79943C18.8023 1.38935 18.3174 1.07375 17.781 0.875931C17.346 0.706978 16.6925 0.505875 15.4888 0.451088C14.1868 0.391708 13.7964 0.378914 10.5 0.378914C7.20325 0.378914 6.81286 0.39138 5.5111 0.45076C4.30743 0.505875 3.6536 0.706978 3.21892 0.875931C2.68253 1.07375 2.19733 1.38935 1.79939 1.79943C1.38931 2.1977 1.07371 2.68258 0.875557 3.21896C0.706604 3.65398 0.505501 4.30781 0.450714 5.51147C0.391335 6.81323 0.37854 7.20363 0.37854 10.5003C0.37854 13.7967 0.391335 14.1871 0.450714 15.4892C0.505501 16.6929 0.706604 17.3464 0.875557 17.7814C1.07371 18.3178 1.38898 18.8027 1.79906 19.2009C2.19733 19.611 2.68221 19.9266 3.21859 20.1244C3.6536 20.2937 4.30743 20.4948 5.5111 20.5496C6.81286 20.609 7.20293 20.6214 10.4996 20.6214C13.7967 20.6214 14.1871 20.609 15.4885 20.5496C16.6922 20.4948 17.346 20.2937 17.781 20.1244C18.8577 19.7091 19.7087 18.8581 20.1241 17.7814C20.293 17.3464 20.4941 16.6929 20.5492 15.4892C20.6086 14.1871 20.6211 13.7967 20.6211 10.5003C20.6211 7.20363 20.6086 6.81323 20.5492 5.51147C20.4944 4.30781 20.2933 3.65398 20.1241 3.21896ZM10.5 16.8395C6.99854 16.8395 4.16013 14.0014 4.16013 10.5C4.16013 6.99859 6.99854 4.16051 10.5 4.16051C14.0011 4.16051 16.8395 6.99859 16.8395 10.5C16.8395 14.0014 14.0011 16.8395 10.5 16.8395ZM17.0901 5.3914C16.2719 5.3914 15.6086 4.72806 15.6086 3.90987C15.6086 3.09167 16.2719 2.42833 17.0901 2.42833C17.9083 2.42833 18.5717 3.09167 18.5717 3.90987C18.5713 4.72806 17.9083 5.3914 17.0901 5.3914Z" fill="#FBF9FF"/>
</svg>
