<svg width="42" height="42" viewBox="0 0 42 42" fill="none" xmlns="http://www.w3.org/2000/svg">
<path d="M21 0C9.40382 0 0 9.40382 0 21C0 32.5962 9.40382 42 21 42C32.5962 42 42 32.5962 42 21C42 9.40382 32.5962 0 21 0ZM31.5353 16.0677V18.9112C30.1945 18.9116 28.8917 18.6489 27.6631 18.1305C26.873 17.797 26.137 17.3672 25.4637 16.8479L25.4839 25.6001C25.4755 27.5709 24.6958 29.4226 23.2846 30.8173C22.1361 31.9527 20.6809 32.6746 19.1036 32.9083C18.733 32.9632 18.3558 32.9913 17.9744 32.9913C16.2859 32.9913 14.6829 32.4443 13.3717 31.4352C13.1249 31.2452 12.8889 31.0392 12.6642 30.8173C11.1348 29.3057 10.3462 27.2571 10.479 25.1019C10.5803 23.4613 11.2371 21.8968 12.3321 20.6705C13.7808 19.0477 15.8074 18.147 17.9744 18.147C18.3558 18.147 18.733 18.1757 19.1036 18.2305V19.2819V22.2064C18.7522 22.0905 18.3769 22.0268 17.9861 22.0268C16.0063 22.0268 14.4047 23.642 14.4343 25.6232C14.4531 26.8908 15.1455 27.9989 16.1668 28.6097C16.6468 28.8968 17.1989 29.0747 17.7881 29.107C18.2498 29.1323 18.6931 29.068 19.1036 28.9325C20.5181 28.4653 21.5385 27.1367 21.5385 25.5697L21.5431 19.7088V9.00867H25.459C25.4627 9.39668 25.5021 9.77525 25.5753 10.1421C25.8709 11.6269 26.7078 12.9152 27.8727 13.7934C28.8884 14.5595 30.1531 15.0136 31.524 15.0136C31.5249 15.0136 31.5362 15.0136 31.5352 15.0127V16.0677H31.5353Z" fill="#FBF9FF"/>
</svg>
